<svg height="512" viewBox="0 0 512 512" width="512" xmlns="http://www.w3.org/2000/svg" xmlns:xlink="http://www.w3.org/1999/xlink"><linearGradient id="New_Gradient_Swatch_2" gradientUnits="userSpaceOnUse" x1="244" x2="244" y1="16.309" y2="450.43"><stop offset="0" stop-color="#fc5c7d"/><stop offset=".129" stop-color="#f35e85"/><stop offset=".343" stop-color="#d9659b"/><stop offset=".616" stop-color="#b070bf"/><stop offset=".934" stop-color="#777ff0"/><stop offset="1" stop-color="#6a82fb"/></linearGradient><linearGradient id="New_Gradient_Swatch_2-2" x1="476" x2="476" xlink:href="#New_Gradient_Swatch_2" y1="16.309" y2="450.43"/><g id="GD001"><path d="m368 168v-16h-32.862a55.82 55.82 0 0 0 16.862-40v-32a16 16 0 0 1 32 0v100a12.013 12.013 0 0 1 -12 12h-228a68 68 0 0 0 0 136h212a12 12 0 0 1 0 24h-248a68 68 0 0 0 0 136h292v16h16v-16h16v16h16v-16h24v-16h-24v-24h24v-16h-24v-16h-16v16h-16v-16h-16v16h-292a12 12 0 0 1 0-24h248a68 68 0 0 0 0-136h-212a12 12 0 0 1 0-24h228a68.077 68.077 0 0 0 68-68v-100a72 72 0 0 0 -144 0v16a16.019 16.019 0 0 1 -16 16h-24v-8a32.036 32.036 0 0 0 -32-32h-16v-16h16v-16h-48v16h16v16h-16a32.036 32.036 0 0 0 -32 32v8h-32v-16h-16v16h-16v-16h-16v16h-16v16h16v24h-48v16zm-32 40v24h-16v-24zm-136 104v-24h16v24zm96 56v24h-16v-24zm-136 104v-24h16v24zm272-24v24h-16v-24zm-32 24h-208v-24h208zm-320-52a28.032 28.032 0 0 0 28 28h36v24h-36a52 52 0 0 1 0-104h156v24h-156a28.032 28.032 0 0 0 -28 28zm328-80a52.059 52.059 0 0 1 -52 52h-44v-24h44a28 28 0 0 0 0-56h-124v-24h124a52.059 52.059 0 0 1 52 52zm-292-80a28.032 28.032 0 0 0 28 28h40v24h-40a52 52 0 0 1 0-104h160v24h-160a28.032 28.032 0 0 0 -28 28zm256-28h-20v-24h20a28.039 28.039 0 0 0 27.71-24h24.121a52.058 52.058 0 0 1 -51.831 48zm28-80h24v16h-24zm-240-48a16.019 16.019 0 0 1 16-16h48a16.019 16.019 0 0 1 16 16v8h-80zm-80 24h16v24h-16zm32 24v-24h168a32.036 32.036 0 0 0 32-32v-16a56 56 0 0 1 112 0v56h-24v-56a32 32 0 0 0 -64 0v32a40.045 40.045 0 0 1 -40 40z" fill="url(#New_Gradient_Swatch_2)"/><path d="m456 152h40v16h-40z" fill="url(#New_Gradient_Swatch_2-2)"/></g></svg>